<?xml version="1.0" encoding="UTF-8" standalone="no"?>
<!-- Created with Inkscape (http://www.inkscape.org/) -->

<svg
   xmlns:dc="http://purl.org/dc/elements/1.1/"
   xmlns:cc="http://creativecommons.org/ns#"
   xmlns:rdf="http://www.w3.org/1999/02/22-rdf-syntax-ns#"
   xmlns:svg="http://www.w3.org/2000/svg"
   xmlns="http://www.w3.org/2000/svg"
   xmlns:sodipodi="http://sodipodi.sourceforge.net/DTD/sodipodi-0.dtd"
   xmlns:inkscape="http://www.inkscape.org/namespaces/inkscape"
   width="16"
   height="16"
   viewBox="0 0 16 16"
   id="svg3645"
   version="1.1"
   inkscape:version="0.91 r13725"
   sodipodi:docname="favicon.svg"
   inkscape:export-filename="/home/tom/dev/catmaid/docs/logo/catmaidlogo.png"
   inkscape:export-xdpi="328.54999"
   inkscape:export-ydpi="328.54999">
  <defs
     id="defs3647" />
  <sodipodi:namedview
     id="base"
     pagecolor="#ffffff"
     bordercolor="#666666"
     borderopacity="1.0"
     inkscape:pageopacity="0"
     inkscape:pageshadow="2"
     inkscape:zoom="22.4"
     inkscape:cx="4.6911295"
     inkscape:cy="5.6935302"
     inkscape:document-units="px"
     inkscape:current-layer="layer1"
     showgrid="false"
     fit-margin-top="0"
     fit-margin-left="0"
     fit-margin-right="0"
     fit-margin-bottom="0"
     inkscape:window-width="1364"
     inkscape:window-height="732"
     inkscape:window-x="0"
     inkscape:window-y="35"
     inkscape:window-maximized="0"
     units="px" />
  <metadata
     id="metadata3650">
    <rdf:RDF>
      <cc:Work
         rdf:about="">
        <dc:format>image/svg+xml</dc:format>
        <dc:type
           rdf:resource="http://purl.org/dc/dcmitype/StillImage" />
        <dc:title></dc:title>
      </cc:Work>
    </rdf:RDF>
  </metadata>
  <g
     inkscape:label="Layer 1"
     inkscape:groupmode="layer"
     id="layer1"
     transform="translate(-301.64424,-290.69908)">
    <path
       style="fill:#448cff;fill-opacity:1;fill-rule:nonzero;stroke:none;stroke-width:1.44079018;stroke-linecap:round;stroke-linejoin:miter;stroke-miterlimit:4;stroke-dasharray:none;stroke-dashoffset:0;stroke-opacity:1"
       d="m 303.23711,303.92457 c -0.91384,-2.34783 -0.86551,-7.57873 -0.29986,-9.67994 0.24126,-0.89621 3.63523,2.59302 4.53446,2.17809 3.80338,-1.75499 5.60879,0.93525 8.52152,-2.38588 0.6936,-1.14187 1.07746,7.50086 -0.21058,9.84309 l -5.92413,-1.33929 z"
       id="path3757-6-1-5-3"
       inkscape:connector-curvature="0"
       sodipodi:nodetypes="csscccc" />
    <path
       style="fill:none;stroke:#444444;stroke-width:1.44079018;stroke-linecap:round;stroke-linejoin:miter;stroke-miterlimit:4;stroke-dasharray:none;stroke-dashoffset:0;stroke-opacity:1"
       d="m 303.2546,303.31747 c -0.91384,-2.34784 -0.77623,-6.95374 -0.21058,-9.05495 0.24126,-0.89621 3.63523,2.59302 4.53446,2.17809 3.80338,-1.75499 5.60879,0.93525 8.52152,-2.38588 0.6936,-1.14187 1.07746,6.9205 -0.21058,9.26274"
       id="path3757-6-1-5"
       inkscape:connector-curvature="0"
       sodipodi:nodetypes="csscc" />
    <path
       sodipodi:type="arc"
       style="fill:#444444;fill-opacity:1;stroke:#444444;stroke-width:0.84232104;stroke-linecap:round;stroke-linejoin:miter;stroke-miterlimit:4;stroke-dasharray:none;stroke-dashoffset:0;stroke-opacity:1"
       id="path3786-6-1-3-1"
       sodipodi:cx="311.57043"
       sodipodi:cy="300.92313"
       sodipodi:rx="0.43691173"
       sodipodi:ry="0.65764219"
       d="m 311.98477,300.71447 a 0.43691173,0.65764219 0 0 1 -0.2711,0.82995 0.43691173,0.65764219 0 0 1 -0.55438,-0.39877 0.43691173,0.65764219 0 0 1 0.25873,-0.83886 0.43691173,0.65764219 0 0 1 0.56016,0.38007"
       sodipodi:start="5.960319"
       sodipodi:end="5.9157017"
       sodipodi:open="true" />
    <path
       sodipodi:type="arc"
       style="fill:#444444;fill-opacity:1;stroke:#444444;stroke-width:0.84232104;stroke-linecap:round;stroke-linejoin:miter;stroke-miterlimit:4;stroke-dasharray:none;stroke-dashoffset:0;stroke-opacity:1"
       id="path3786-2-9-6"
       sodipodi:cx="307.92813"
       sodipodi:cy="300.8129"
       sodipodi:rx="0.43691173"
       sodipodi:ry="0.65764219"
       d="m 308.34247,300.60424 a 0.43691173,0.65764219 0 0 1 -0.2711,0.82995 0.43691173,0.65764219 0 0 1 -0.55438,-0.39877 0.43691173,0.65764219 0 0 1 0.25873,-0.83885 0.43691173,0.65764219 0 0 1 0.56015,0.38006"
       sodipodi:start="5.960319"
       sodipodi:end="5.9157017"
       sodipodi:open="true" />
  </g>
</svg>
