<svg xmlns="http://www.w3.org/2000/svg" width="221" height="67" viewBox="0 0 221 67">
    <g fill="none" fill-rule="nonzero">
        <path fill="#A6A8AB" d="M26.922 15C43.418 15 54 26.975 54 41c0 13.708-10.115 25.999-27.078 25.999C10.427 67.156 0 54.866 0 41.157 0 26.975 10.738 15 26.922 15zm0 45.538c11.205 0 19.608-8.194 19.608-19.381 0-11.188-8.248-19.381-19.608-19.381-11.204 0-19.452 8.193-19.452 19.38 0 11.03 8.248 19.382 19.452 19.382zM75.687 16c10.18 0 16.602 5.435 16.602 13.975 0 5.745-2.976 10.093-8.458 12.267 4.542 2.95 7.362 7.609 11.277 13.82C97.301 59.478 98.554 61.186 102 66h-8.614L86.65 55.752C79.916 45.503 76.94 44.26 73.18 44.26h-2.976V66H63V16h12.687zm-5.482 21.74h4.699c7.83 0 10.024-4.038 9.867-8.075 0-4.659-2.82-7.61-9.867-7.61h-4.7V37.74zM146.536 27.097c-6.185-3.614-11.443-5.342-17.165-5.342-11.443 0-19.948 8.17-19.948 19.324 0 11.31 8.196 19.166 20.103 19.166 5.567 0 11.752-2.043 17.474-5.656v8.012C142.052 65.271 136.794 67 128.907 67 110.196 67 102 52.39 102 41.707 102 26.31 113.443 15 129.371 15c5.103 0 10.361 1.257 17.165 4.085v8.012z"/>
        <path fill="#A5CD39" d="M175 16h19.36C212.791 16 221 29.199 221 41c0 12.888-10.067 25-26.485 25H175V16zm7.125 43.478h11.46c16.263 0 19.98-12.422 19.98-18.633 0-10.093-6.35-18.634-20.289-18.634H182.28v37.267h-.154z"/>
        <g fill="#A5CD39">
            <path d="M164.114 66h-7.228V15.4h7.228v28.129zM165.214 4.714c0 2.672-2.2 4.715-4.714 4.715-2.671 0-4.714-2.2-4.714-4.715 0-2.514 2.2-4.714 4.714-4.714 2.671 0 4.714 2.2 4.714 4.714z"/>
        </g>
    </g>
</svg>
